HIERARCHY
ROOT Hips
{
  OFFSET 0.0000 96.6554 0.0000
  CHANNELS 6 Xposition Yposition Zposition Zrotation Xrotation Yrotation
  JOINT Spine
  {
    OFFSET 0.0000 13.2344 0.0000
    CHANNELS 3 Zrotation Xrotation Yrotation
    JOINT Spine1
    {
      OFFSET 0.0000 12.9244 0.0000
      CHANNELS 3 Zrotation Xrotation Yrotation
      JOINT Spine2
      {
        OFFSET 0.0000 13.3596 0.0000
        CHANNELS 3 Zrotation Xrotation Yrotation
        JOINT LeftShoulder
        {
          OFFSET 7.2389 10.7865 0.0000
          CHANNELS 3 Zrotation Xrotation Yrotation
          JOINT LeftArm
          {
            OFFSET 0.0000 13.8402 0.0000
            CHANNELS 3 Zrotation Xrotation Yrotation
            JOINT LeftForeArm
            {
              OFFSET -0.0001 26.8373 0.0000
              CHANNELS 3 Zrotation Xrotation Yrotation
              JOINT LeftHand
              {
                OFFSET 0.0000 29.5519 0.0000
                CHANNELS 3 Zrotation Xrotation Yrotation
                JOINT LeftHandIndex1
                {
                  OFFSET -2.6557 8.3719 0.1068
                  CHANNELS 3 Zrotation Xrotation Yrotation
                  JOINT LeftHandIndex2
                  {
                    OFFSET 0.0000 4.7496 0.0000
                    CHANNELS 3 Zrotation Xrotation Yrotation
                    JOINT LeftHandIndex3
                    {
                      OFFSET 0.0000 2.9220 0.0000
                      CHANNELS 3 Zrotation Xrotation Yrotation
                      End Site
                      {
                        OFFSET 0.0000 1.3566 0.0000
                      }
                    }
                  }
                }
                JOINT LeftHandMiddle1
                {
                  OFFSET -0.5651 8.4368 0.1068
                  CHANNELS 3 Zrotation Xrotation Yrotation
                  JOINT LeftHandMiddle2
                  {
                    OFFSET 0.0000 4.8759 0.0000
                    CHANNELS 3 Zrotation Xrotation Yrotation
                    JOINT LeftHandMiddle3
                    {
                      OFFSET 0.0000 3.2160 0.0000
                      CHANNELS 3 Zrotation Xrotation Yrotation
                      End Site
                      {
                        OFFSET 0.0000 1.4991 0.0000
                      }
                    }
                  }
                }
                JOINT LeftHandPinky1
                {
                  OFFSET 3.2526 7.2771 0.1068
                  CHANNELS 3 Zrotation Xrotation Yrotation
                  JOINT LeftHandPinky2
                  {
                    OFFSET 0.0000 3.6852 0.0000
                    CHANNELS 3 Zrotation Xrotation Yrotation
                    JOINT LeftHandPinky3
                    {
                      OFFSET 0.0000 2.3164 0.0000
                      CHANNELS 3 Zrotation Xrotation Yrotation
                      End Site
                      {
                        OFFSET 0.0000 1.1205 0.0000
                      }
                    }
                  }
                }
                JOINT LeftHandRing1
                {
                  OFFSET 1.4936 8.0949 0.1069
                  CHANNELS 3 Zrotation Xrotation Yrotation
                  JOINT LeftHandRing2
                  {
                    OFFSET 0.0000 4.5543 0.0000
                    CHANNELS 3 Zrotation Xrotation Yrotation
                    JOINT LeftHandRing3
                    {
                      OFFSET 0.0000 2.9372 0.0000
                      CHANNELS 3 Zrotation Xrotation Yrotation
                      End Site
                      {
                        OFFSET 0.0000 1.3500 0.0000
                      }
                    }
                  }
                }
                JOINT LeftHandThumb1
                {
                  OFFSET -2.8891 2.1558 0.0984
                  CHANNELS 3 Zrotation Xrotation Yrotation
                  JOINT LeftHandThumb2
                  {
                    OFFSET 0.0000 4.1082 0.0000
                    CHANNELS 3 Zrotation Xrotation Yrotation
                    JOINT LeftHandThumb3
                    {
                      OFFSET 0.0000 3.1181 0.0000
                      CHANNELS 3 Zrotation Xrotation Yrotation
                      End Site
                      {
                        OFFSET 0.0000 1.7295 0.0000
                      }
                    }
                  }
                }
              }
            }
          }
        }
        JOINT Neck
        {
          OFFSET 0.0000 18.7818 0.0000
          CHANNELS 3 Zrotation Xrotation Yrotation
          JOINT Head
          {
            OFFSET 0.0000 11.3439 0.0000
            CHANNELS 3 Zrotation Xrotation Yrotation
            End Site
            {
              OFFSET 0.0000 8.1622 0.0000
            }
          }
        }
        JOINT RightShoulder
        {
          OFFSET -7.2390 10.7865 0.0000
          CHANNELS 3 Zrotation Xrotation Yrotation
          JOINT RightArm
          {
            OFFSET 0.0000 13.8401 0.0000
            CHANNELS 3 Zrotation Xrotation Yrotation
            JOINT RightForeArm
            {
              OFFSET 0.0000 26.8374 0.0000
              CHANNELS 3 Zrotation Xrotation Yrotation
              JOINT RightHand
              {
                OFFSET -0.0001 29.5519 0.0000
                CHANNELS 3 Zrotation Xrotation Yrotation
                JOINT RightHandIndex1
                {
                  OFFSET 2.6557 8.3720 0.1068
                  CHANNELS 3 Zrotation Xrotation Yrotation
                  JOINT RightHandIndex2
                  {
                    OFFSET 0.0000 4.7496 0.0000
                    CHANNELS 3 Zrotation Xrotation Yrotation
                    JOINT RightHandIndex3
                    {
                      OFFSET 0.0000 2.9221 0.0000
                      CHANNELS 3 Zrotation Xrotation Yrotation
                      End Site
                      {
                        OFFSET 0.0000 1.3566 0.0000
                      }
                    }
                  }
                }
                JOINT RightHandMiddle1
                {
                  OFFSET 0.5651 8.4369 0.1068
                  CHANNELS 3 Zrotation Xrotation Yrotation
                  JOINT RightHandMiddle2
                  {
                    OFFSET 0.0000 4.8760 0.0000
                    CHANNELS 3 Zrotation Xrotation Yrotation
                    JOINT RightHandMiddle3
                    {
                      OFFSET 0.0000 3.2161 0.0000
                      CHANNELS 3 Zrotation Xrotation Yrotation
                      End Site
                      {
                        OFFSET 0.0000 1.4991 0.0000
                      }
                    }
                  }
                }
                JOINT RightHandPinky1
                {
                  OFFSET -3.2526 7.2771 0.1068
                  CHANNELS 3 Zrotation Xrotation Yrotation
                  JOINT RightHandPinky2
                  {
                    OFFSET 0.0000 3.6852 0.0000
                    CHANNELS 3 Zrotation Xrotation Yrotation
                    JOINT RightHandPinky3
                    {
                      OFFSET 0.0000 2.3164 0.0000
                      CHANNELS 3 Zrotation Xrotation Yrotation
                      End Site
                      {
                        OFFSET 0.0000 1.1205 0.0000
                      }
                    }
                  }
                }
                JOINT RightHandRing1
                {
                  OFFSET -1.4937 8.0949 0.1068
                  CHANNELS 3 Zrotation Xrotation Yrotation
                  JOINT RightHandRing2
                  {
                    OFFSET 0.0000 4.5543 0.0000
                    CHANNELS 3 Zrotation Xrotation Yrotation
                    JOINT RightHandRing3
                    {
                      OFFSET 0.0000 2.9372 0.0000
                      CHANNELS 3 Zrotation Xrotation Yrotation
                      End Site
                      {
                        OFFSET 0.0000 1.3500 0.0000
                      }
                    }
                  }
                }
                JOINT RightHandThumb1
                {
                  OFFSET 2.8891 2.1558 0.0984
                  CHANNELS 3 Zrotation Xrotation Yrotation
                  JOINT RightHandThumb2
                  {
                    OFFSET 0.0000 4.1081 0.0000
                    CHANNELS 3 Zrotation Xrotation Yrotation
                    JOINT RightHandThumb3
                    {
                      OFFSET 0.0000 3.1181 0.0000
                      CHANNELS 3 Zrotation Xrotation Yrotation
                      End Site
                      {
                        OFFSET 0.0000 1.7295 0.0000
                      }
                    }
                  }
                }
              }
            }
          }
        }
      }
    }
  }
  JOINT LeftUpLeg
  {
    OFFSET 8.3288 0.0000 0.0000
    CHANNELS 3 Zrotation Xrotation Yrotation
    JOINT LeftLeg
    {
      OFFSET 0.0000 44.4203 0.0000
      CHANNELS 3 Zrotation Xrotation Yrotation
      JOINT LeftFoot
      {
        OFFSET 0.0000 44.5232 0.0000
        CHANNELS 3 Zrotation Xrotation Yrotation
        JOINT LeftToe
        {
          OFFSET 0.0000 14.9844 0.0000
          CHANNELS 3 Zrotation Xrotation Yrotation
          End Site
          {
            OFFSET 0.0000 3.5000 0.0000
          }
        }
      }
    }
  }
  JOINT RightUpLeg
  {
    OFFSET -8.3288 0.0000 0.0000
    CHANNELS 3 Zrotation Xrotation Yrotation
    JOINT RightLeg
    {
      OFFSET 0.0000 44.4203 0.0000
      CHANNELS 3 Zrotation Xrotation Yrotation
      JOINT RightFoot
      {
        OFFSET 0.0000 44.5232 0.0000
        CHANNELS 3 Zrotation Xrotation Yrotation
        JOINT RightToe
        {
          OFFSET 0.0000 14.9844 0.0000
          CHANNELS 3 Zrotation Xrotation Yrotation
          End Site
          {
            OFFSET 0.0000 3.5000 0.0000
          }
        }
      }
    }
  }
}
MOTION
Frames: 4
Frame Time: 0.016667
8.5745 97.1452 -24.9196 3.9717 10.3255 -1.2523 -0.1563 0.9550 0.0343 -0.1563 0.9551 0.0343 -0.1567 0.9579 0.0344 -86.0458 -12.7046 88.2992 7.7727 43.9860 15.4931 49.4401 28.9470 -40.2336 -1.6793 1.9230 -1.1452 0.0001 0.0000 0.0000 -0.0000 0.0000 0.0000 -0.0008 -0.0013 -0.0000 0.0001 -0.0004 0.0000 -0.0000 0.0000 0.0000 -0.0000 0.0000 0.0000 -0.0000 0.0002 0.0000 0.0003 -0.0006 0.0000 -0.0006 0.0004 0.0000 0.0001 0.0000 0.0000 -0.0000 0.0000 0.0000 -0.0002 -0.0010 -0.0000 30.0001 0.0002 -0.0001 -29.9998 0.0005 0.0002 -0.0000 0.0000 0.0000 -0.8880 0.9090 0.4357 -0.8880 0.9090 0.4357 87.7543 -19.5990 -85.0293 7.5065 58.1780 13.9267 -50.9512 -6.5825 79.4250 3.9767 -3.6878 1.3748 0.0001 -0.0001 0.0000 -0.0000 0.0000 0.0000 0.0003 -0.0006 0.0000 0.0001 -0.0001 0.0000 -0.0000 0.0000 0.0000 -0.0000 0.0000 0.0000 0.0001 0.0007 -0.0000 0.0001 -0.0011 0.0000 0.0003 -0.0008 0.0000 -0.0000 0.0001 0.0000 -0.0000 0.0000 0.0000 -0.0000 -0.0009 0.0000 -29.9996 0.0002 0.0001 29.9996 -0.0003 0.0001 -0.0000 0.0000 0.0000 176.6959 -0.2062 -0.5390 -2.4800 -3.3029 -13.7995 10.8765 70.5301 -13.9273 -0.0000 25.3510 0.0000 178.4855 9.5570 -0.6511 -0.0828 -1.8198 -0.0058 -7.0908 67.6073 6.7451 -0.0001 25.3508 0.0000
8.5416 97.1472 -24.9365 4.0133 10.3235 -1.3696 -0.1404 0.9369 -0.0032 -0.1404 0.9370 -0.0032 -0.1408 0.9398 -0.0032 -86.0757 -12.6968 88.3493 7.1536 44.3337 15.6820 43.0392 30.4580 -37.1434 -1.3844 1.8501 -0.8896 0.0001 0.0000 0.0000 -0.0000 0.0000 0.0000 -0.0008 -0.0013 -0.0000 0.0001 -0.0004 0.0000 -0.0000 0.0000 0.0000 -0.0000 0.0000 0.0000 -0.0000 0.0003 0.0000 0.0003 -0.0006 0.0000 -0.0006 0.0004 0.0000 0.0001 0.0000 0.0000 -0.0000 0.0000 0.0000 -0.0002 -0.0010 -0.0000 30.0001 0.0003 -0.0002 -29.9998 0.0005 0.0002 -0.0000 0.0000 0.0000 -0.9156 0.9220 0.4833 -0.9156 0.9220 0.4833 87.6600 -19.5376 -85.1431 6.7170 57.0762 14.2045 -55.9184 -6.7504 76.9402 4.6829 -4.0643 1.7477 0.0001 -0.0001 0.0000 -0.0000 0.0000 0.0000 0.0003 -0.0006 0.0000 0.0001 -0.0001 0.0000 -0.0000 0.0000 0.0000 -0.0000 0.0000 0.0000 0.0001 0.0007 -0.0000 0.0001 -0.0012 0.0000 0.0003 -0.0008 0.0000 -0.0000 0.0001 0.0000 -0.0000 0.0000 0.0000 -0.0000 -0.0008 0.0000 -29.9996 0.0002 0.0001 29.9996 -0.0003 0.0001 -0.0000 0.0000 0.0000 176.6957 -0.2083 -0.5952 -2.4909 -3.3258 -13.8666 10.8362 70.5395 -13.9283 -0.0000 25.3511 0.0000 178.4829 9.5471 -0.8307 -0.0828 -1.7566 -0.0057 -7.1328 67.5544 6.8046 -0.0001 25.3508 0.0000
8.5229 97.1498 -24.9433 4.0605 10.3179 -1.4905 -0.1296 0.9229 -0.0399 -0.1296 0.9230 -0.0399 -0.1300 0.9257 -0.0400 -86.0954 -12.6877 88.4015 6.5277 44.5677 15.7060 36.5485 31.5696 -34.1394 -1.1601 1.7896 -0.6857 0.0001 0.0000 0.0000 -0.0000 0.0000 0.0000 -0.0008 -0.0013 -0.0000 0.0001 -0.0004 0.0000 -0.0000 0.0000 0.0000 -0.0000 0.0000 0.0000 -0.0000 0.0002 0.0000 0.0003 -0.0006 0.0000 -0.0006 0.0004 0.0000 0.0001 0.0000 0.0000 -0.0000 0.0000 0.0000 -0.0002 -0.0010 -0.0000 30.0001 0.0002 -0.0001 -29.9998 0.0005 0.0002 -0.0000 0.0000 0.0000 -0.9384 0.9206 0.5224 -0.9384 0.9206 0.5224 87.5611 -19.4650 -85.2220 5.6520 55.8610 14.8493 -60.7541 -6.5804 74.3144 5.4705 -4.4242 2.1862 0.0001 -0.0001 0.0000 -0.0000 0.0000 0.0000 0.0003 -0.0006 0.0000 0.0001 -0.0001 0.0000 -0.0000 0.0000 0.0000 -0.0000 0.0000 0.0000 0.0001 0.0007 -0.0000 0.0001 -0.0012 0.0000 0.0003 -0.0008 0.0000 -0.0000 0.0001 0.0000 -0.0000 0.0000 0.0000 -0.0000 -0.0009 0.0000 -29.9997 0.0002 0.0001 29.9996 -0.0003 0.0001 -0.0000 0.0000 0.0000 176.6940 -0.2070 -0.6459 -2.5040 -3.3565 -13.9304 10.7959 70.5484 -13.9334 -0.0000 25.3510 0.0000 178.4663 9.5983 -1.0041 -0.0829 -1.8346 -0.0063 -7.1597 67.5802 6.8644 -0.0001 25.3508 0.0000
8.5053 97.1542 -24.9420 4.1137 10.3098 -1.6147 -0.1248 0.9130 -0.0743 -0.1248 0.9131 -0.0743 -0.1252 0.9158 -0.0746 -86.1057 -12.6772 88.4546 5.9139 44.6878 15.5985 30.0212 32.2939 -31.2688 -0.9903 1.7470 -0.5199 0.0001 0.0000 0.0000 -0.0000 0.0000 0.0000 -0.0008 -0.0013 -0.0000 0.0001 -0.0004 0.0000 -0.0000 0.0000 0.0000 -0.0000 0.0000 0.0000 -0.0000 0.0003 0.0000 0.0003 -0.0006 0.0000 -0.0006 0.0004 0.0000 0.0001 0.0000 0.0000 -0.0000 0.0000 0.0000 -0.0002 -0.0010 -0.0000 30.0001 0.0003 -0.0002 -29.9998 0.0005 0.0002 -0.0000 0.0000 0.0000 -0.9541 0.9062 0.5548 -0.9541 0.9062 0.5548 87.4560 -19.3821 -85.2706 4.8895 54.8318 15.3029 -65.4555 -6.0319 71.6132 6.0394 -4.4582 2.5730 0.0001 -0.0001 0.0000 -0.0000 0.0000 0.0000 0.0003 -0.0006 0.0000 0.0001 -0.0001 0.0000 -0.0000 0.0000 0.0000 -0.0000 0.0000 0.0000 0.0001 0.0007 -0.0000 0.0001 -0.0011 0.0000 0.0003 -0.0008 0.0000 -0.0000 0.0001 0.0000 -0.0000 0.0000 0.0000 -0.0000 -0.0008 0.0000 -29.9996 0.0002 0.0001 29.9996 -0.0003 0.0001 -0.0000 0.0000 0.0000 176.6887 -0.2083 -0.6960 -2.5174 -3.3893 -13.9884 10.7473 70.5584 -13.9322 -0.0000 25.3510 0.0000 178.4437 9.6889 -1.1647 -0.0828 -2.0054 -0.0070 -7.1602 67.6603 6.9025 -0.0001 25.3508 0.0000
